<svg width="368" height="144" xmlns="http://www.w3.org/2000/svg">
 <!-- Created with Method Draw - http://github.com/duopixel/Method-Draw/ -->
 <g>
  <title>Layer 1</title>
  <polyline stroke-linecap="round" id="svg_1" points="234.5,42.73750000000001 234.5,43.73750000000001 234.5,44.73750000000001 " stroke-opacity="null" stroke-width="1.5" stroke="#000" fill="none"/>
  <polyline stroke-linecap="round" id="svg_2" points="-136.5,-18.26249999999999 -135.5,-18.26249999999999 " stroke-opacity="null" stroke-width="1.5" stroke="#000" fill="none"/>
  <path id="svg_4" d="m23.139804,38.107408l9.931134,0l3.068797,-8.594212l3.068798,8.594212l9.931132,0l-8.034441,5.311454l3.068955,8.594212l-8.034445,-5.311599l-8.034443,5.311599l3.068956,-8.594212l-8.034444,-5.311454z" stroke-opacity="null" stroke-width="1.5" stroke="#000" fill="#ffa9a2"/>
  <path stroke="#000" id="svg_5" d="m34.582243,118.73735l10.504085,0l3.245843,-10.122073l3.245845,10.122073l10.504083,0l-8.497968,6.255714l3.246011,10.122073l-8.497971,-6.255884l-8.497969,6.255884l3.246012,-10.122073l-8.49797,-6.255714z" stroke-opacity="null" stroke-width="1.5" fill="#ffa9a2"/>
  <path id="svg_6" d="m68.909565,67.429103l5.347531,0l1.652428,-4.583581l1.652429,4.583581l5.34753,0l-4.326236,2.832776l1.652514,4.583581l-4.326238,-2.832854l-4.326237,2.832854l1.652514,-4.583581l-4.326237,-2.832776z" fill-opacity="null" stroke-opacity="null" stroke-width="1.5" stroke="#000" fill="#ffa9a2"/>
  <path id="svg_7" d="m83.336986,35.171936l3.055736,0l0.944246,-2.673754l0.944247,2.673754l3.055736,0l-2.472138,1.652452l0.944295,2.673754l-2.472139,-1.652497l-2.472139,1.652497l0.944295,-2.673754l-2.472139,-1.652452z" fill-opacity="null" stroke-opacity="null" stroke-width="1.5" stroke="#000" fill="#ffa9a2"/>
  <path id="svg_8" d="m-27.694433,12.26887l5.347534,0l1.652429,-3.81965l1.65243,3.81965l5.347533,0l-4.326238,2.360647l1.652515,3.81965l-4.32624,-2.360711l-4.326239,2.360711l1.652515,-3.81965l-4.326239,-2.360647z" fill-opacity="null" stroke-opacity="null" stroke-width="1.5" stroke="#000" fill="#ffa9a2"/>
  <path id="svg_9" d="m24.499876,78.178355l5.347534,0l1.652429,-5.729475l1.65243,5.729475l5.347533,0l-4.326238,3.54097l1.652515,5.729475l-4.32624,-3.541066l-4.326239,3.541066l1.652515,-5.729475l-4.326239,-3.54097z" fill-opacity="null" stroke-opacity="null" stroke-width="1.5" stroke="#000" fill="#ffa9a2"/>
  <text font-weight="normal" stroke="#000" xml:space="preserve" text-anchor="start" font-family="'Courier New', Courier, monospace" font-size="39" id="svg_10" y="62.281626" x="133.247241" fill-opacity="null" stroke-opacity="null" stroke-width="0" fill="#FFA9A2">katherine</text>
  <text xml:space="preserve" text-anchor="start" font-family="'Courier New', Courier, monospace" font-size="32" id="svg_11" y="107.118635" x="245.249883" fill-opacity="null" stroke-opacity="null" stroke-width="0" stroke="#000" fill="#FFA9A2">Flores</text>
 </g>
</svg>